PathFileType	4	(X/Y/Z)	/Users/niels/Desktop/University/Third Semester/Perception and Action/Exam/Gymnastics Motion Tracking/Code for Gym Tracking/Analyzed Data/Webcam_Backflip/id5_2_baseline_Sports2D/id5_2_baseline_Sports2D_px_person00.trc
DataRate	CameraRate	NumFrames	NumMarkers	Units	OrigDataRate	OrigDataStartFrame	OrigNumFrames
29.81132075471698	29.81132075471698	10	22	m	29.81132075471698	139	159
Frame#	Time	Hip			RHip			RKnee			RAnkle			RBigToe			RSmallToe			RHeel			LHip			LKnee			LAnkle			LBigToe			LSmallToe			LHeel			Neck			Head			Nose			RShoulder			RElbow			RWrist			LShoulder			LElbow			LWrist		
		X1	Y1	Z1	X2	Y2	Z2	X3	Y3	Z3	X4	Y4	Z4	X5	Y5	Z5	X6	Y6	Z6	X7	Y7	Z7	X8	Y8	Z8	X9	Y9	Z9	X10	Y10	Z10	X11	Y11	Z11	X12	Y12	Z12	X13	Y13	Z13	X14	Y14	Z14	X15	Y15	Z15	X16	Y16	Z16	X17	Y17	Z17	X18	Y18	Z18	X19	Y19	Z19	X20	Y20	Z20	X21	Y21	Z21	X22	Y22	Z22
139	4.662658227848101	0.9022499746217449	-0.5652195192231443	0.0	0.8974666653441357	-0.5639569637684502	0.0	0.9224568483389741	-0.6617073518555419	0.0	0.8450202379289723	-0.7413585111087979	0.0	0.8705958608037967	-0.7782258317460444	0.0	0.8614761363062389	-0.7778166951501415	0.0	0.8295287235391335	-0.7488607488758966	0.0	0.9100552551036479	-0.564625513610567	0.0	0.9194415189205644	-0.6645792946254875	0.0	0.917873128996423	-0.7680827587154606	0.0	0.9623018525641011	-0.7777828986525822	0.0	0.9567744849521124	-0.7751818531141097	0.0	0.9127641245942206	-0.7798451732665062	0.0	0.9207949315254145	-0.4232417066100534	0.0	0.9649199033387493	-0.37858273486776994	0.0	0.9613462469394551	-0.41414370643128384	0.0	0.9035353136608302	-0.4313689988402205	0.0	0.883885545705445	-0.4974201560380421	0.0	0.9027419212632323	-0.559294741411215	0.0	0.92066746164552	-0.4413857396139577	0.0	0.9188065628877723	-0.5149456571619073	0.0	0.9458406565638547	-0.5619081765519471	0.0
140	4.69620253164557	0.9038406392950842	-0.5607161353379867	0.0	0.8997995542881634	-0.5597871714226008	0.0	0.9331403489594207	-0.6557153113354522	0.0	0.8665746322906303	-0.7421250555150118	0.0	0.8963253332305584	-0.7759164895480866	0.0	0.8869066929156221	-0.7758211093261537	0.0	0.8517201535146197	-0.7517185522499353	0.0	0.9099579823637823	-0.5602626241035222	0.0	0.9191341022395915	-0.6609670608554883	0.0	0.9175942700587714	-0.7639390739194264	0.0	0.9619774987817559	-0.7752837022348952	0.0	0.9566473419976602	-0.7726701713443571	0.0	0.9119713762157561	-0.7765124904614321	0.0	0.9256649678830884	-0.4201828447396902	0.0	0.9721559358150751	-0.37552598499510087	0.0	0.9663719445947246	-0.41142218981364787	0.0	0.9075348769826553	-0.4271693489565497	0.0	0.8877036724218205	-0.49256895300561737	0.0	0.9070907516752313	-0.5539254800625023	0.0	0.9252406066647444	-0.43744987430089377	0.0	0.9237012865446019	-0.5106433434197559	0.0	0.9520943101378587	-0.5570971879175459	0.0
141	4.729746835443038	0.9054780904390839	-0.5583574976139162	0.0	0.9022356733932974	-0.5575983975055814	0.0	0.9420362466966804	-0.6517474166686437	0.0	0.8890812951543698	-0.7451593908842826	0.0	0.9236765219007201	-0.7747539830128494	0.0	0.9140890075611807	-0.775488610546956	0.0	0.875346287098138	-0.7569415188088275	0.0	0.9097585159144271	-0.5579281530006054	0.0	0.9191409105496903	-0.6590864532476269	0.0	0.917325632164423	-0.7613385660070268	0.0	0.9614559742414374	-0.7740395746986185	0.0	0.9562936572737446	-0.771671722890293	0.0	0.9109863899839071	-0.7749926830387106	0.0	0.9303499425811572	-0.41883762895729393	0.0	0.9787990162143537	-0.3737765807196875	0.0	0.9710491103630389	-0.4101207626196598	0.0	0.9113737073286918	-0.424982765319614	0.0	0.8918410036772026	-0.4898367088853944	0.0	0.9113393266669908	-0.5507555267630484	0.0	0.9298522049743597	-0.43542242450137525	0.0	0.9285830240827037	-0.5080673106678386	0.0	0.9583331050393363	-0.5542686694784545	0.0
142	4.763291139240506	0.9074495319073301	-0.5584061920653876	0.0	0.9050623786449233	-0.557634866404899	0.0	0.9490712508140268	-0.6502447682977487	0.0	0.9111124414683902	-0.7498158847590799	0.0	0.9503920607616909	-0.7746385427123729	0.0	0.9408548611753127	-0.7765806795826895	0.0	0.8988655894415846	-0.7634306314408287	0.0	0.9099542513256125	-0.557845812472673	0.0	0.9196686873268156	-0.6591460678574391	0.0	0.9172234592950212	-0.7607613490778807	0.0	0.9607646031446662	-0.7740616222656602	0.0	0.9557404529712409	-0.7721562418052772	0.0	0.9101358186490768	-0.7754611730904835	0.0	0.934785806743886	-0.41925685374831545	0.0	0.9844232824094719	-0.3733707768705683	0.0	0.9753821607198354	-0.4102587086779856	0.0	0.9151705226259992	-0.4249212528663168	0.0	0.8964504128960346	-0.48945623902958574	0.0	0.9157657623761313	-0.5501091394940129	0.0	0.9342867970469665	-0.4354589055511988	0.0	0.9334733497583338	-0.507404899304231	0.0	0.9645854404047212	-0.5534824498789462	0.0
143	4.796835443037974	0.9101019381064166	-0.5608643807091717	0.0	0.9086127974890132	-0.5599328889186652	0.0	0.9544345226537994	-0.6514500841490208	0.0	0.9311194097682305	-0.7556794516237428	0.0	0.9741643272128044	-0.7757293566414244	0.0	0.9648745950728075	-0.778950937732073	0.0	0.9204948729555338	-0.7705387526059959	0.0	0.9109949520992265	-0.5600432906301183	0.0	0.920838627707623	-0.6611541480337999	0.0	0.9173683468658589	-0.7624778391031307	0.0	0.9598925022148799	-0.7755198558962328	0.0	0.9549322043112419	-0.774148108628557	0.0	0.9097665202791743	-0.7779001721775013	0.0	0.938896612151682	-0.42132173558224273	0.0	0.9887249782360648	-0.37427260686557984	0.0	0.9793829953665959	-0.4117681801042797	0.0	0.9190068731972663	-0.4268911479843268	0.0	0.9015967493229503	-0.4914457412379171	0.0	0.9205656004219427	-0.5520927833937475	0.0	0.9382926379473414	-0.4374404400101355	0.0	0.9383678236443708	-0.5085600352413409	0.0	0.9707903799553097	-0.554530285924971	0.0
144	4.830379746835443	0.9136791250110676	-0.5654643589252546	0.0	0.9131775293313075	-0.5642916022625215	0.0	0.9584848312837364	-0.655341589114293	0.0	0.9477655008523144	-0.7625585002999054	0.0	0.9931996741273373	-0.7783024462090451	0.0	0.9842017373394528	-0.7826109946445079	0.0	0.9386798153167859	-0.7780587516354311	0.0	0.9131345698967822	-0.5643205664220877	0.0	0.9226476953447958	-0.6649285683583823	0.0	0.9177024792588468	-0.7662942817686941	0.0	0.9588887328522182	-0.7786406330993658	0.0	0.9538955404543611	-0.7776734962037656	0.0	0.909913687794524	-0.7820189591927335	0.0	0.942595931141613	-0.4247821265449658	0.0	0.9916647505280668	-0.3764181690386912	0.0	0.9830086094510818	-0.4145406721489702	0.0	0.9229113346772432	-0.430661788625411	0.0	0.9072240449743726	-0.49561542977862844	0.0	0.9258418692584465	-0.5565265008382513	0.0	0.9416663365991489	-0.4410024523774473	0.0	0.9431977096085902	-0.5112552582663198	0.0	0.9768462572653751	-0.5570179685764703	0.0
145	4.863924050632911	0.9182122129297293	-0.5717043169852807	0.0	0.9188435530553412	-0.5702825037587994	0.0	0.9615652857033454	-0.6615630017981663	0.0	0.9601959850990226	-0.7703510309069189	0.0	1.0065549160260343	-0.7825563530436136	0.0	0.9976414855233547	-0.7876329801264539	0.0	0.9524738919821838	-0.7859630487186929	0.0	0.9163671905992856	-0.5702408927187644	0.0	0.9249857049500005	-0.6701058978625765	0.0	0.9181697674561042	-0.7716188790960556	0.0	0.9579988386409615	-0.7833895783684048	0.0	0.9529049783008025	-0.7825661288351683	0.0	0.9104102306075684	-0.787311000674744	0.0	0.94582424699235	-0.42930595126976384	0.0	0.9934548901540073	-0.3796608811030566	0.0	0.9861656300519491	-0.41840450474903085	0.0	0.9268721590615977	-0.43592914758185286	0.0	0.9131653308574255	-0.501572154351514	0.0	0.9315614365576665	-0.5628867342644377	0.0	0.9442844780871409	-0.4456648036690908	0.0	0.9478133129522196	-0.5151657533633418	0.0	0.9826564877384082	-0.5604724334899145	0.0
146	4.897468354430379	0.9235050500818845	-0.5788919746342669	0.0	0.9253592704646814	-0.5772726886230152	0.0	0.9638721737332969	-0.6694141861856867	0.0	0.9682856465187147	-0.7788668362981006	0.0	1.0143253089070523	-0.7884337038268026	0.0	1.0050167873787132	-0.7939397691051373	0.0	0.9617761388271168	-0.794134833018056	0.0	0.9204980143364768	-0.5771570541776498	0.0	0.9276813045034754	-0.6761720920581721	0.0	0.9187953219854224	-0.7777025400567031	0.0	0.957522391232651	-0.7893392741365737	0.0	0.9522923282235108	-0.788394629801094	0.0	0.9111509487541674	-0.7931865805629886	0.0	0.9486071845051123	-0.4344989502590119	0.0	0.9944439555990734	-0.3836876270843602	0.0	0.9888027264049659	-0.42302484215295466	0.0	0.9308503902631982	-0.44231018428540064	0.0	0.9191746807329607	-0.508751342258232	0.0	0.9375373330303255	-0.5703671332227388	0.0	0.9461540229111471	-0.45095373113618165	0.0	0.9520080699343857	-0.5199612233580352	0.0	0.9881002245619384	-0.5644155379128396	0.0
147	4.931012658227848	0.929200166989896	-0.5862495449104789	0.0	0.9321757362557644	-0.5845101628181176	0.0	0.965491190681381	-0.6779465965083901	0.0	0.9727188669499246	-0.7876844804307347	0.0	1.0176117208434132	-0.795492894333035	0.0	1.0072718355124846	-0.8011233560342962	0.0	0.9673040689653405	-0.802243109036159	0.0	0.9252862434865821	-0.5843103889714877	0.0	0.9305399260534495	-0.6825105836231119	0.0	0.9196013101108551	-0.7838041167992338	0.0	0.9576080021986216	-0.7957936099484758	0.0	0.9522494521989239	-0.7945892670575586	0.0	0.9120810641145757	-0.799031007664077	0.0	0.9510741510637534	-0.43987493502430536	0.0	0.9950067669391641	-0.3880636403799732	0.0	0.9910096048711887	-0.42791171043208653	0.0	0.9347714878519451	-0.4492985958884098	0.0	0.924996736865406	-0.5165488760045917	0.0	0.9435411741003678	-0.5781056350816336	0.0	0.9475011420765294	-0.456418169551844	0.0	0.9556127882200978	-0.5252572404049567	0.0	0.9929782053341388	-0.5684087658953316	0.0
148	4.964556962025316	0.9348939360481254	-0.5930484271133285	0.0	0.9386805836799367	-0.591230407643669	0.0	0.9665303784660297	-0.6861419308411817	0.0	0.9746524189391	-0.7961212563439245	0.0	1.0180556678214758	-0.8029126271055814	0.0	1.0061253547169244	-0.8084305356723813	0.0	0.9701718777833863	-0.809743907625279	0.0	0.9304974032358374	-0.5909509964358495	0.0	0.933370689465337	-0.6884555483006225	0.0	0.9205368264166293	-0.7892669554692167	0.0	0.9582162739358232	-0.8019494932901045	0.0	0.9528386392303527	-0.8005157731585903	0.0	0.9131006674195336	-0.8042351333039717	0.0	0.9533977026572722	-0.44487306643521946	0.0	0.9954824270291525	-0.39234503122146586	0.0	0.9929953354715577	-0.43255013129323927	0.0	0.9385210937617171	-0.4562335981962828	0.0	0.9304406933429543	-0.524367186433515	0.0	0.9493809976820707	-0.5853734952918347	0.0	0.9487513650583105	-0.4615858602579106	0.0	0.9585922797222659	-0.5305798371393698	0.0	0.9970182599302686	-0.5721269988524651	0.0
